<svg xmlns="http://www.w3.org/2000/svg" viewBox="0 0 370 350"><defs><style>.cls-1{isolation:isolate;}.cls-2,.cls-3{fill:#f6a2b4;}.cls-15,.cls-2{opacity:0.2;}.cls-4{fill:#005382;}.cls-5{fill:#006089;}.cls-6{fill:#046764;}.cls-7{fill:#007593;}.cls-8{fill:#0094bc;}.cls-9{fill:#c2e7ef;}.cls-10{fill:#0086b4;}.cls-11{fill:#05524e;}.cls-12{fill:#eb9859;}.cls-13{fill:#fff;}.cls-14{fill:#e63f31;}.cls-15{fill:#616262;}.cls-15,.cls-18{mix-blend-mode:multiply;}.cls-16{fill:#58595b;}.cls-17{fill:#929497;}.cls-18{fill:#231f20;}.cls-18,.cls-21{opacity:0.5;}.cls-19{fill:#414042;}.cls-20{fill:#004767;}.cls-21{fill:#27aae1;}.cls-22{fill:#e5e5e4;}</style></defs><g class="cls-1"><g id="Layer_1" data-name="Layer 1"><circle class="cls-2" cx="179.9154" cy="173.92845" r="166.46094"/><path class="cls-2" d="M142.0572,333.81611l.3501.67c-.12012-.04-.23-.07-.3501-.1Z"/><path class="cls-2" d="M294.58723,247.7461h20.73v23.01q-3.62988,5.08492-7.63989,9.86h-10.8501q-.79468,1.05-1.61987,2.1c-.13013.17-.26.35-.40015.52a4.15881,4.15881,0,0,0-1.75977-2.62,4.70634,4.70634,0,0,0-.48022-.29,4.18509,4.18509,0,0,0-1.86987-.44h-24.96c-.29.24-.57007.47-.86011.7-1.03.82-2.07984,1.63-3.13989,2.41-.38013.29-.77.58-1.16016.86-.48.36-.97.71-1.46,1.05-.33008.25-.65991.48-1,.71-.01.01-.02.01-.03.02-.63989.45-1.2898.9-1.93994,1.34q-2.235,1.5-4.54,2.91c-1.59986.99-3.22,1.95-4.85986,2.86-.40015.23-.81006.45-1.21021.67-1.2.66-2.3999,1.29-3.61987,1.91-.06006.03-.11011.05-.15992.08-.75.38-1.51.75-2.27,1.11-.05.02-.09009.05-.14014.07q-1.08.51-2.15991,1.02c-.77.35-1.54.7-2.32007,1.04-.61987.27-1.25.54-1.87988.8-.26.11-.53.22-.79.33-.68018.28-1.36011.55-2.04.82-.22.09-.45.18-.66992.27-.12012.04-.23.09-.3501.13-.3.11-.60987.23-.90991.34-.36011.13-.71021.26-1.07007.39-.29.11-.59009.21-.87989.31-.26025.1-.52.2-.79.29-.6001.21-1.2002.42-1.81006.62a.56746.56746,0,0,1-.12012.04c-.61987.21-1.25.41-1.87988.61-.39991.13-.81006.26-1.21.38q-3.78,1.17-7.66993,2.11c-.62011.15-1.23022.29-1.85009.43-.16993.04-.3501.08-.52.12-.48.11-.96.21-1.43994.31-.26.06-.52.12-.79.17-.39991.08-.8.16-1.21.24-.4502.09-.90015.18-1.3501.26q-.84009.165-1.67993.3c-.05.01-.11011.02-.17017.03-1.06982.18-2.13989.35-3.22.51-1.01978.15-2.0398.29-3.05982.41-.12011.01-.23.03-.35009.04-.07007.01-.14991.02-.22.03-.78.1-1.58008.19-2.37012.27a135.291,135.291,0,0,1-18.28.58c-2.35986-.08-4.75-.23-7.13989-.44-.61988-.05-1.24-.11-1.86011-.17-.40991-.05-.80981-.09-1.21-.13-.38989-.05-.77979-.09-1.16992-.14-.07007-.01-.14991-.02-.22-.03-.40992-.04-.82007-.1-1.22-.15l-.93018-.12c-.86987-.12-1.73975-.25-2.59985-.38-1.07007-.17-2.1399-.35-3.21-.55a.49779.49779,0,0,1-.16016-.03c-1.05-.19-2.09985-.38995-3.1499-.61-1.07007-.22-2.1399-.46-3.21-.71q-1.59009-.375-3.17994-.78c-.59008-.15-1.18017-.31-1.77-.47-.1101-.03-.23-.06005-.34008-.09-.88013-.24-1.75-.49-2.63013-.75-.31982-.1-.63989-.19-.96-.3q-.68994-.195-1.37988-.42c-.69-.22-1.39014-.45-2.08008-.68l-.08985-.03c-.75-.24-1.5-.5-2.24023-.77-.56982-.2-1.12988-.41-1.7-.63-.2-.07-.3999-.15-.60986-.22-3.77-1.43-7.47-3.01-11.07007-4.75v-.01a1.10864,1.10864,0,0,1-.15991-.07c-.29-.14-.58008-.29-.87012-.43-1.04-.51-2.06006-1.04-3.07984-1.57-1.94018-1.02-3.8601-2.09-5.74023-3.2-1.87988-1.12-3.73-2.27-5.54981-3.47-1.82006-1.2-3.60009-2.44-5.3601-3.73-1.75-1.28-3.47-2.61-5.15991-3.97-.6001-.47-1.18995-.96-1.78-1.45-.71-.59-1.42017-1.2-2.12012-1.81-.32984-.29-.66992-.58-1-.88-.43994-.39-.87988-.78-1.30982-1.19-.19018-.16-.38012-.33-.56005-.5l-.01-.01c-.59009-.54-1.17017-1.09-1.74-1.63995-.13013-.12-.25-.24-.37012-.36005-.56006-.53-1.10986-1.06995-1.65991-1.62-.42017-.42-.8501-.86-1.27-1.29-.1001-.1-.18994-.19-.29-.29-.15991-.16-.31006-.32-.47-.49-.40991-.42-.82007-.85-1.21-1.28-.48-.51-.96-1.03-1.43018-1.55-.46973-.52-.93994-1.04-1.3999-1.57-.35987-.4-.7-.8-1.05-1.2-.51978-.6-1.03-1.21-1.5398-1.82-.07006-.09-.15014-.18-.23-.28-.65014-.78-1.28027-1.57-1.91015-2.37-.1001-.13-.21-.27-.31006-.4-.56983-.72-1.11987-1.44-1.65991-2.17-.63013-.84-1.25-1.69-1.86011-2.54-.65991-.92-1.29981-1.85-1.92993-2.79-.31006-.45-.61011-.9-.91992-1.36-.3-.46-.6001-.92-.89014-1.38-.60986-.95-1.21-1.9-1.8-2.87-.5-.82-.98975-1.64-1.46973-2.48q-2.31006-3.99-4.35009-8.13c-.06006-.13-.11011-.25-.16993-.37-.25-.51-.5-1.03-.74023-1.54-.82983-1.76-1.62988-3.55-2.37988-5.35q-1.485-3.51-2.76-7.13a132.85169,132.85169,0,0,1-4.91992-17.63,135.57814,135.57814,0,0,1-2.45-17.78c-.05-.78-.10009-1.56-.14013-2.34,0-.04-.01-.09-.01-.13-.03-.61-.06006-1.22-.07984-1.83-.13012-3.52-.13012-7.06.01978-10.64.03-.88.08008-1.75.13013-2.63.06005-.97.12988-1.95.21-2.93.02-.27.04-.53.06006-.8.03-.27.0498-.54.08007-.81.02979-.37.06983-.74.09986-1.12q.10511-1.08.24-2.16.09009-.82506.21-1.65.09009-.795.21-1.59l-6.54981-12.31-10.04-18.84H55.60725q.43506-1.09506.90014-2.19c.21-.51.42994-1.03.65992-1.54.16992-.4.34985-.8.53-1.19995.55005-1.24005,1.12988-2.47,1.72-3.69.22-.47.45-.93.67993-1.39q2.80518-5.625,6.1001-10.93c.43994-.71.87988-1.41,1.33984-2.11.41016-.64.84009-1.28,1.26025-1.92.5-.74,1.00977-1.48,1.51978-2.21.3-.44.61011-.87.92017-1.30005.74-1.04,1.5-2.06,2.27978-3.08.36011-.48.73023-.95,1.1001-1.42.12012-.16.25-.31995.37012-.47.43994-.55.86987-1.1,1.31982-1.64.57007-.7,1.14014-1.39,1.73-2.08.23-.28.47021-.56.71021-.83.55-.63,1.09985-1.26,1.65991-1.89.44995-.51.90991-1.01,1.37988-1.51.40015-.43.79-.85,1.19019-1.27a134.1914,134.1914,0,0,1,11.40991-10.71c.32007-.27.64013-.54.97-.8.87012-.72,1.76-1.43,2.65014-2.12.84986-.67,1.71-1.32,2.57984-1.96.06006-.05.12012-.09.17993-.14.89014-.66,1.8-1.31,2.71021-1.94.91992-.65,1.85986-1.29,2.8-1.92.46-.3.90992-.6,1.36988-.9.29-.19.59009-.38.88989-.57.41016-.26.82007-.52,1.24023-.78.29981-.19.60987-.38.90992-.56.51-.31,1.03-.62,1.54-.93.52-.3,1.03979-.61,1.55981-.91.46021-.27.93018-.53,1.40015-.79s.93994-.52,1.41992-.78c.92993-.51,1.88013-1,2.82007-1.49.03-.01.05-.03.08007-.04.33985-.18.67994-.35,1.02979-.52,1.01025-.51,2.02-1,3.04-1.48a.47.47,0,0,0,.1001-.05c.99-.46,1.98-.91,2.98-1.35.55-.24,1.10986-.48,1.65991-.72a.77794.77794,0,0,0,.16016-.07c1.05981-.44,2.12988-.88,3.2-1.3.56006-.22,1.12011-.44,1.68994-.65q5.235-1.98,10.66992-3.52c.71021-.21,1.42017-.4,2.14014-.59q5.205-1.395,10.57007-2.37a134.67965,134.67965,0,0,1,24.03979-2.16c2.88013,0,5.78.1,8.69019.28q2.54993.165,5.09985.42c.47021.05.93017.1,1.40015.16a134.4488,134.4488,0,0,1,50.66992,16.19c.26.14.52.29.78.44,1.99,1.12,3.93994,2.3,5.85986,3.52a133.52649,133.52649,0,0,1,11.38013,8.09q4.78491,3.795,9.18994,7.99a134.86293,134.86293,0,0,1,14.51,16.18c1.22,1.61,2.3999,3.23,3.54,4.88,1.47,2.12,2.87011,4.28,4.22,6.48a135.15141,135.15141,0,0,1,3.36011,134.95q-1.155,2.115-2.38013,4.18c-.72,1.22-1.46,2.43-2.22,3.62C294.78718,247.4361,294.68733,247.59607,294.58723,247.7461Z"/><path class="cls-3" d="M315.21736,188.52607a134.5179,134.5179,0,0,1-15.73,50.95q-1.155,2.115-2.38013,4.18c-.72,1.22-1.46,2.43-2.22,3.62-.1001.16-.2.32-.3.47-1.53,2.38-3.11987,4.7-4.7898,6.97q-2.77514,3.765-5.78027,7.32v.01c-.46973.55-.93994,1.1-1.41992,1.65a135.71327,135.71327,0,0,1-16.85986,16.19c-.29.24-.57007.47-.86011.7-1.03.82-2.07984,1.63-3.13989,2.41-.38013.29-.77.58-1.16016.86-.48.36-.97.71-1.46,1.05-.33008.25-.65991.48-1,.71-.01.01-.02.01-.03.02-.63989.45-1.2898.9-1.93994,1.34q-2.235,1.5-4.54,2.91c-1.59986.99-3.22,1.95-4.85986,2.86-.40015.23-.81006.45-1.21021.67-1.2.66-2.3999,1.29-3.61987,1.91-.06006.03-.11011.05-.15992.08-.75.38-1.51.75-2.27,1.11-.05.02-.09009.05-.14014.07q-1.08.51-2.15991,1.02c-.77.35-1.54.7-2.32007,1.04-.61987.27-1.25.54-1.87988.8-.26.11-.53.22-.79.33-.68018.28-1.36011.55-2.04.82-.22.09-.45.18-.66992.27-.12012.04-.23.09-.3501.13-.3.11-.60987.23-.90991.34-.36011.13-.71021.26-1.07007.39-.29.11-.58008.22-.87012.32-.27.1-.52979.19-.7998.28-.6001.21-1.2002.42-1.81006.62a.56746.56746,0,0,1-.12012.04c-.61987.21-1.25.41-1.87988.61-.39991.13-.81006.26-1.21.38q-3.78,1.17-7.66993,2.11c-.62011.15-1.23022.29-1.85009.43-.16993.04-.3501.08-.52.12-.48.11-.96.21-1.43994.31-.26.06-.52.12-.79.17-.39991.08-.8.16-1.21.24-.4502.09-.90015.18-1.3501.26q-.84009.165-1.67993.3c-.05.01-.11011.02-.17017.03-1.06982.18-2.13989.35-3.22.51-1.01978.15-2.0398.29-3.05982.41-.12011.01-.23.03-.35009.04-.07007.01-.14991.02-.22.03-.78.1-1.58008.19-2.37012.27a135.291,135.291,0,0,1-18.28.58c-2.35986-.08-4.75-.23-7.13989-.44-.61988-.05-1.24-.11-1.86011-.17-.40991-.05-.80981-.09-1.21-.13-.38989-.05-.77979-.09-1.16992-.14-.07007-.01-.14991-.02-.22-.03-.40992-.04-.82007-.1-1.22-.15l-.93018-.12c-.86987-.12-1.73975-.25-2.59985-.38-1.07007-.17-2.1399-.35-3.21-.55a.49779.49779,0,0,1-.16016-.03c-1.05-.19-2.09985-.38995-3.1499-.61-1.07007-.22-2.1399-.46-3.21-.71q-1.59009-.375-3.17994-.78c-.59008-.15-1.18017-.31-1.77-.47-.1101-.03-.23-.06005-.34008-.09-.88013-.24-1.75-.49-2.63013-.75-.31982-.1-.63989-.19-.96-.3q-.68994-.195-1.37988-.42c-.69-.22-1.39014-.45-2.08008-.68l-.08985-.03c-.75-.24-1.5-.5-2.24023-.77-.56982-.2-1.12988-.41-1.7-.63-.2-.07-.3999-.15-.60986-.22-3.77-1.43-7.47-3.01-11.07007-4.75-.05005-.03-.10987-.05-.15991-.08-.29-.14-.58008-.29-.87012-.43-1.04-.51-2.06006-1.04-3.07984-1.57-1.94018-1.02-3.8601-2.09-5.74023-3.2-1.87988-1.12-3.73-2.27-5.54981-3.47-1.82006-1.2-3.60009-2.44-5.3601-3.73-1.75-1.28-3.47-2.61-5.15991-3.97-.6001-.47-1.18995-.96-1.78-1.45-.71-.59-1.42017-1.2-2.12012-1.81-.32984-.29-.66992-.58-1-.88-.43994-.39-.87988-.78-1.30982-1.19-.19018-.16-.38012-.33-.56005-.5l-.01-.01c-.59009-.54-1.17017-1.09-1.74-1.63995-.13013-.12-.25-.24-.37012-.36005-.56006-.53-1.10986-1.06995-1.65991-1.62-.42017-.42-.8501-.86-1.27-1.29-.1001-.1-.18994-.19-.29-.29-.15991-.16-.31006-.32-.47-.49-.40991-.42-.82007-.85-1.21-1.28-.48-.51-.96-1.03-1.43018-1.55-.46973-.52-.93994-1.04-1.3999-1.57-.35987-.4-.7-.8-1.05-1.2-.51978-.6-1.03-1.21-1.5398-1.82-.07006-.09-.15014-.18-.23-.28-.65014-.78-1.28027-1.57-1.91015-2.37-.1001-.13-.21-.27-.31006-.4-.56983-.72-1.11987-1.44-1.65991-2.17-.63013-.84-1.25-1.69-1.86011-2.54-.04981-.06-.08984-.13-.13989-.19-.61011-.86-1.2-1.72-1.79-2.6-.31006-.45-.61011-.9-.91992-1.36-.3-.46-.6001-.92-.89014-1.38-.60986-.95-1.21-1.9-1.8-2.87-.5-.82-.98975-1.64-1.46973-2.48q-2.31006-3.99-4.35009-8.13c-.06006-.13-.11011-.25-.16993-.37-.25-.51-.5-1.03-.74023-1.54-.82983-1.76-1.62988-3.55-2.37988-5.35q-1.485-3.51-2.76-7.13a132.85169,132.85169,0,0,1-4.91992-17.63,135.57814,135.57814,0,0,1-2.45-17.78c-.05-.78-.10009-1.56-.14013-2.34,0-.04-.01-.09-.01-.13-.03-.61-.06006-1.22-.07984-1.83-.04-1.17-.07006-2.35-.08007-3.54-.03-2.35.01-4.72.09985-7.1.03-.88.08008-1.75.13013-2.63.06005-.97.12988-1.95.21-2.93.02-.27.04-.53.06006-.8.03-.27.0498-.54.08007-.81.02979-.37.06983-.74.09986-1.12q.10511-1.08.24-2.16.09009-.82506.21-1.65.09009-.795.21-1.59.12012-.9.27-1.8.12012-.825.27-1.65c.20019-1.24.43017-2.47.66992-3.7.12012-.58.24023-1.17.36011-1.76q.87012-4.14,1.99-8.18.29993-1.09506.63013-2.19c.15991-.57.32983-1.13.51-1.69.14991-.5.30982-.99.47-1.49.03979-.13.07983-.27.12988-.4.15991-.49.32007-.98.49-1.47q.21021-.61506.41992-1.23c.22022-.62.44019-1.25.67017-1.87.03-.07.05-.15.07983-.22.43018-1.18.88013-2.34,1.34009-3.5q.43506-1.09506.90014-2.19c.21-.51.42994-1.03.65992-1.54.16992-.4.34985-.8.53-1.19995.55005-1.24005,1.12988-2.47,1.72-3.69.22-.47.45-.93.67993-1.39q2.80518-5.625,6.1001-10.93c.43994-.71.87988-1.41,1.33984-2.11.41016-.64.84009-1.28,1.26025-1.92.5-.74,1.00977-1.48,1.51978-2.21.3-.44.61011-.87.92017-1.30005.74-1.04,1.5-2.06,2.27978-3.08.36011-.48.73023-.95,1.1001-1.42.12012-.16.25-.31995.37012-.47.43994-.55.86987-1.1,1.31982-1.64.57007-.7,1.14014-1.39,1.73-2.08.23-.28.47021-.56.71021-.83.55-.63,1.09985-1.26,1.65991-1.89.44995-.51.90991-1.01,1.37988-1.51.40015-.43.79-.85,1.19019-1.27a134.1914,134.1914,0,0,1,11.40991-10.71c.32007-.27.64013-.54.97-.8.87012-.72,1.76-1.43,2.65014-2.12.84986-.67,1.71-1.32,2.57984-1.96.06006-.05.12012-.09.17993-.14.89014-.66,1.8-1.31,2.71021-1.94.91992-.65,1.85986-1.29,2.8-1.92.46-.3.90992-.6,1.36988-.9.29-.19.59009-.38.88989-.57.41016-.26.82007-.52,1.24023-.78.29981-.19.60987-.38.90992-.56.51-.31,1.03-.62,1.54-.93.52-.3,1.03979-.61,1.55981-.91.46021-.27.93018-.53,1.40015-.79s.93994-.52,1.41992-.78c.92993-.51,1.88013-1,2.82007-1.49.03-.01.05-.03.08007-.04.33985-.18.67994-.35,1.02979-.52,1.01025-.51,2.02-1,3.04-1.48a.47.47,0,0,0,.1001-.05c.99-.46,1.98-.91,2.98-1.35.55-.24,1.10986-.48,1.65991-.72a.77794.77794,0,0,0,.16016-.07c1.05981-.44,2.12988-.88,3.2-1.3.56006-.22,1.12011-.44,1.68994-.65q5.235-1.98,10.66992-3.52c.71021-.21,1.42017-.4,2.14014-.59q5.205-1.395,10.57007-2.37a134.67965,134.67965,0,0,1,24.03979-2.16c2.88013,0,5.78.1,8.69019.28q2.54993.165,5.09985.42c.47021.05.93017.1,1.40015.16a134.4488,134.4488,0,0,1,50.66992,16.19c.26.14.52.29.78.44,1.99,1.12,3.93994,2.3,5.85986,3.52a133.52649,133.52649,0,0,1,11.38013,8.09q4.78491,3.795,9.18994,7.99a134.86293,134.86293,0,0,1,14.51,16.18c1.22,1.61,2.3999,3.23,3.54,4.88,1.47,2.12,2.87011,4.28,4.22,6.48A134.349,134.349,0,0,1,315.21736,188.52607Z"/><path class="cls-4" d="M75.39729,252.65607s-1.86011.19-4.48.43c-.61011-.86-1.2-1.72-1.79-2.6-.31006-.45-.61011-.9-.91992-1.36-.3-.46-.6001-.92-.89014-1.38-.60986-.95-1.21-1.9-1.8-2.87-.5-.82-.98975-1.64-1.46973-2.48q-2.31006-3.99-4.35009-8.13c-.06006-.13-.11011-.25-.16993-.37-.25-.51-.5-1.03-.74023-1.54-.82983-1.76-1.62988-3.55-2.37988-5.35q-1.485-3.51-2.76-7.13a132.85169,132.85169,0,0,1-4.91992-17.63,135.57814,135.57814,0,0,1-2.45-17.78c-.05-.78-.10009-1.56-.14013-2.34,0-.04-.01-.09-.01-.13-.03-.61-.06006-1.22-.07984-1.83-.04-1.17-.07006-2.35-.08007-3.54l7.42993,3.89Z"/><rect class="cls-4" x="311.24225" y="103.44975" width="15.51158" height="146.29428" transform="translate(637.99608 353.19377) rotate(180)"/><path class="cls-5" d="M141.32722,303.9361q-.68994-.195-1.37988-.42c-.69-.22-1.39014-.45-2.08008-.68l-.08985-.03c-.75-.24-1.5-.5-2.24023-.77-.56982-.2-1.12988-.41-1.7-.63-.2-.07-.3999-.15-.60986-.22q-5.74512-2.175-11.23-4.83c-.29-.14-.58008-.29-.87012-.43-1.04-.51-2.06006-1.04-3.07984-1.57-1.94018-1.02-3.8601-2.09-5.74023-3.2-1.87988-1.12-3.73-2.27-5.54981-3.47-1.82006-1.2-3.60009-2.44-5.3601-3.73-1.75-1.28-3.47-2.61-5.15991-3.97-.6001-.47-1.18995-.96-1.78-1.45-.71-.59-1.42017-1.2-2.12012-1.81-.32984-.29-.66992-.58-1-.88-.43994-.39-.87988-.78-1.30982-1.19-.19018-.16-.38012-.33-.56005-.5l-.01-.01c-.59009-.54-1.17017-1.09-1.74-1.63995-.13013-.12-.25-.24-.37012-.36005-.56006-.53-1.10986-1.06995-1.65991-1.62-.52-.52-1.04-1.05-1.56006-1.58-.15991-.16-.31006-.32-.47-.49-.40991-.42-.82007-.85-1.21-1.28q-1.455-1.53-2.83008-3.12c-.35987-.4-.7-.8-1.05-1.2-.51978-.6-1.03-1.21-1.5398-1.82-.07006-.09-.15014-.18-.23-.28-.65014-.78-1.28027-1.57-1.91015-2.37-.1001-.13-.21-.27-.31006-.4-.56983-.72-1.11987-1.44-1.65991-2.17-.63013-.84-1.25-1.69-1.86011-2.54-.65991-.92-1.29981-1.85-1.92993-2.79-.31006-.45-.61011-.9-.91992-1.36-.3-.46-.6001-.92-.89014-1.38h67.92017l1.65991,15.34.1001.82,1.72,15.98.66992,6.13.09009.8Z"/><path class="cls-5" d="M142.0572,333.81611l.3501.67c-.12012-.04-.23-.07-.3501-.1Z"/><path class="cls-6" d="M294.58723,247.7461c-1.53,2.38-3.11987,4.7-4.7898,6.97q-2.77514,3.765-5.78027,7.32v.01c-.46973.55-.93994,1.1-1.41992,1.65a135.71327,135.71327,0,0,1-16.85986,16.19c-.29.24-.57007.47-.86011.7-1.03.82-2.07984,1.63-3.13989,2.41-.38013.29-.77.58-1.16016.86-.48.36-.97.71-1.46,1.05-.33008.25-.65991.48-1,.71-.01.01-.02.01-.03.02-.63989.45-1.2898.9-1.93994,1.34q-2.235,1.5-4.54,2.91c-1.59986.99-3.22,1.95-4.85986,2.86-.40015.23-.81006.45-1.21021.67-1.2.66-2.3999,1.29-3.61987,1.91-.06006.03-.11011.05-.15992.08-.75.38-1.51.75-2.27,1.11-.05.02-.09009.05-.14014.07q-1.08.51-2.15991,1.02c-.77.35-1.54.7-2.32007,1.04-.61987.27-1.25.54-1.87988.8-.26.11-.53.22-.79.33-.68018.28-1.36011.55-2.04.82-.22.09-.45.18-.66992.27-.12012.04-.23.09-.3501.13-.3.11-.60987.23-.90991.34-.36011.13-.71021.26-1.07007.39-.29.11-.58008.22-.87012.32-.27.1-.52979.19-.7998.28-.6001.21-1.2002.42-1.81006.62a.56746.56746,0,0,1-.12012.04c-.61987.21-1.25.41-1.87988.61-.39991.13-.81006.26-1.21.38q-3.78,1.17-7.66993,2.11c-.62011.15-1.23022.29-1.85009.43-.16993.04-.3501.08-.52.12-.48.11-.96.21-1.43994.31-.26.06-.52.12-.79.17-.39991.08-.8.16-1.21.24-.4502.09-.90015.18-1.3501.26q-.84009.165-1.67993.3c-.05.01-.11011.02-.17017.03-1.06982.18-2.13989.35-3.22.51-1.01978.15-2.0398.29-3.05982.41-.12011.01-.23.03-.35009.04v-61.16Z"/><path class="cls-7" d="M239.34724,296.58606q-1.08.51-2.15991,1.02c-.77.35-1.54.7-2.32007,1.04-.61987.27-1.25.54-1.87988.8-.26.11-.53.22-.79.33-.68018.28-1.36011.55-2.04.82-.22.09-.45.18-.66992.27-.12012.04-.23.09-.3501.13-.3.11-.60987.23-.90991.34-.36011.13-.71021.26-1.07007.39-.29.11-.58008.22-.87012.32-.27.1-.52979.19-.7998.28-.6001.21-1.2002.42-1.81006.62a.56746.56746,0,0,1-.12012.04c-.61987.21-1.25.41-1.87988.61-.39991.13-.81006.26-1.21.38q-3.78,1.17-7.66993,2.11c-.62011.15-1.23022.29-1.85009.43-.16993.04-.3501.08-.52.12-.48.11-.96.21-1.43994.31-.26.06-.52.12-.79.17-.39991.08-.8.16-1.21.24-.4502.09-.90015.18-1.3501.26q-.84009.165-1.67993.3c-.05.01-.11011.02-.17017.03-1.06982.18-2.13989.35-3.22.51-1.01978.15-2.0398.29-3.05982.41-.12011.01-.23.03-.35009.04-.07007.01-.14991.02-.22.03-.78.1-1.58008.19-2.37012.27a135.291,135.291,0,0,1-18.28.58c-2.35986-.08-4.75-.23-7.13989-.44-.61988-.05-1.24-.11-1.86011-.17-.40991-.05-.80981-.09-1.21-.13-.38989-.05-.77979-.09-1.16992-.14-.07007-.01-.14991-.02-.22-.03-.40992-.04-.82007-.1-1.22-.15l-.93018-.12c-.86987-.12-1.73975-.25-2.59985-.38-1.07007-.17-2.1399-.35-3.21-.55a.49779.49779,0,0,1-.16016-.03c-1.05-.19-2.09985-.38995-3.1499-.61-1.07007-.22-2.1399-.46-3.21-.71q-1.59009-.375-3.17994-.78c-.59008-.15-1.18017-.31-1.77-.47-.1101-.03-.23-.06005-.34008-.09-.88013-.24-1.75-.49-2.63013-.75-.31982-.1-.63989-.19-.96-.3q-.68994-.195-1.37988-.42c-.69-.22-1.39014-.45-2.08008-.68l-.08985-.03c-.75-.24-1.5-.5-2.24023-.77-.56982-.2-1.12988-.41-1.7-.63-.2-.07-.3999-.15-.60986-.22-3.77-1.43-7.47-3.01-11.07007-4.75v-.01l-8.76-16.44-4.99-9.39-.01-.03-7.13013-13.36-5.02978-9.46-48.93018-91.91-6.54981-12.31-10.04-18.84h150.25l16.18994,39.18,12.73,40.06,5.26,16.53.01.03,8.65991,27.26,7.2102,22.66.54981,1.72.41016,1.32,1.71,5.36.35009,1.08.23.73,1.59986,5.05,2.45,7.71Z"/><path class="cls-4" d="M109.48738,274.4961h-16.48a19.287,19.287,0,0,1-3.54-.34l-.01-.01c-.59009-.54-1.17017-1.09-1.74-1.63995-.13013-.12-.25-.24-.37012-.36005-.56006-.53-1.10986-1.06995-1.65991-1.62q-3.72-3.705-7.12012-7.67c-.51978-.6-1.03-1.21-1.5398-1.82-.07006-.09-.15014-.18-.23-.28-.65014-.78-1.28027-1.57-1.91015-2.37-.1001-.13-.21-.27-.31006-.4-.56983-.72-1.11987-1.44-1.65991-2.17-.63013-.84-1.25-1.69-1.86011-2.54-.65991-.92-1.29981-1.85-1.92993-2.79l-.76-2.74-16.41992-59.18a10.38932,10.38932,0,0,0-3.63013-5.24,10.94282,10.94282,0,0,0-2.18994-1.33,8.77219,8.77219,0,0,0-3.65991-.84c-7.8,0-15.73-3.16-22.26-8.27a39.51,39.51,0,0,1-13.81006-19.97c-4.32007-15.59,4.81006-28.23,20.40991-28.23H39.68733a33.928,33.928,0,0,1,14.57983,3.5c10.05005,4.8,18.53027,14.07,21.49023,24.73l7.82984,28.24,18.48,66.59Z"/><path class="cls-7" d="M259.11726,284.90607c-.33008.25-.65991.48-1,.71-.01.01-.02.01-.03.02-.63989.45-1.2898.9-1.93994,1.34q-2.235,1.5-4.54,2.91c-1.59986.99-3.22,1.95-4.85986,2.86-.40015.23-.81006.45-1.21021.67-1.2.66-2.3999,1.29-3.61987,1.91-.06006.03-.11011.05-.15992.08-.75.38-1.51.75-2.27,1.11-.05.02-.09009.05-.14014.07q-1.08.51-2.15991,1.02c-.77.35-1.54.7-2.32007,1.04-.61987.27-1.25.54-1.87988.8-.26.11-.53.22-.79.33-.68018.28-1.36011.55-2.04.82-.22.09-.45.18-.66992.27l-1.34009-4.88-.21-.75-2.49-9.09-1.51-5.53-.21-.73-.08008-.28-.22-.8-1.08008-3.98-.28-1-.32983-1.2-.33008-1.22-6.49-23.66-12.05-43.97-4.17993-15.2a10.27183,10.27183,0,0,0-3.63013-5.25,9.66764,9.66764,0,0,0-5.83984-2.17c-7.80005,0-15.73-3.16-22.26-8.28a39.22025,39.22025,0,0,1-13.8-19.96c-4.34009-15.59,4.8-28.23,20.39013-28.23h12.87989c15.60009,0,31.75,12.64,36.07007,28.23l7.83984,28.24,15.69018,56.54v.01l.50977,1.83.5,1.83,1.77,6.38,8.61011,31.06.31006,1.08.2.73Z"/><path class="cls-8" d="M265.73738,279.88611c-.29.24-.57007.47-.86011.7-1.03.82-2.07984,1.63-3.13989,2.41-.38013.29-.77.58-1.16016.86-.48.36-.97.71-1.46,1.05-.33008.25-.65991.48-1,.71-.01.01-.02.01-.03.02-.63989.45-1.2898.9-1.93994,1.34q-2.235,1.5-4.54,2.91c-1.59986.99-3.22,1.95-4.85986,2.86-.40015.23-.81006.45-1.21021.67-1.2.66-2.3999,1.29-3.61987,1.91-.06006.03-.11011.05-.15992.08-.75.38-1.51.75-2.27,1.11-.05.02-.09009.05-.14014.07q-1.08.51-2.15991,1.02c-.77.35-1.54.7-2.32007,1.04-.61987.27-1.25.54-1.87988.8-.26.11-.53.22-.79.33-.68018.28-1.36011.55-2.04.82-.22.09-.45.18-.66992.27-.12012.04-.23.09-.3501.13-.3.11-.60987.23-.90991.34-.36011.13-.71021.26-1.07007.39-.29.11-.58008.22-.87012.32-.27.1-.52979.19-.7998.28-.6001.21-1.2002.42-1.81006.62a.56746.56746,0,0,1-.12012.04c-.61987.21-1.25.41-1.87988.61-.39991.13-.81006.26-1.21.38q-3.78,1.17-7.66993,2.11c-.62011.15-1.23022.29-1.85009.43-.16993.04-.3501.08-.52.12-.48.11-.96.21-1.43994.31-.26.06-.52.12-.79.17-.39991.08-.8.16-1.21.24-.4502.09-.90015.18-1.3501.26q-.84009.165-1.67993.3c-.05.01-.11011.02-.17017.03-1.06982.18-2.13989.35-3.22.51-1.01978.15-2.0398.29-3.05982.41-.12011.01-.23.03-.35009.04-.07007.01-.14991.02-.22.03-.78.1-1.58008.19-2.37012.27a135.291,135.291,0,0,1-18.28.58c-2.35986-.08-4.75-.23-7.13989-.44-.61988-.05-1.24-.11-1.86011-.17-.40991-.05-.80981-.09-1.21-.13-.38989-.05-.77979-.09-1.16992-.14-.07007-.01-.14991-.02-.22-.03-.40992-.04-.82007-.1-1.22-.15l-.93018-.12c-.86987-.12-1.73975-.25-2.59985-.38-1.07007-.17-2.1399-.35-3.21-.55a.49779.49779,0,0,1-.16016-.03c-1.05-.19-2.09985-.38995-3.1499-.61-1.07007-.22-2.1399-.46-3.21-.71q-1.59009-.375-3.17994-.78c-.59008-.15-1.18017-.31-1.77-.47-.1101-.03-.23-.06005-.34008-.09-.88013-.24-1.75-.49-2.63013-.75-.31982-.1-.63989-.19-.96-.3q-.68994-.195-1.37988-.42c-.69-.22-1.39014-.45-2.08008-.68V279.88611Z"/><path class="cls-9" d="M175.84724,295.16608a4.305,4.305,0,1,0,4.31006,4.3A4.29968,4.29968,0,0,0,175.84724,295.16608Zm0,7.84a3.535,3.535,0,1,1,3.54-3.54A3.54453,3.54453,0,0,1,175.84724,303.00611Z"/><path class="cls-9" d="M232.98738,299.44611a4.29569,4.29569,0,0,0-4.3-4.28,3.80913,3.80913,0,0,0-.75.07,4.20976,4.20976,0,0,0-2.67017,1.64,4.2603,4.2603,0,0,0,.22022,5.45c.27-.09.52978-.18005.7998-.28l-.00977-.01a3.502,3.502,0,0,1-1.12011-2.57,3.54257,3.54257,0,0,1,2.99-3.48,2.41456,2.41456,0,0,1,.54-.05,3.52947,3.52947,0,0,1,3.53,3.53,1.61351,1.61351,0,0,1-.02.31C232.45735,299.66608,232.72737,299.5561,232.98738,299.44611Z"/><path class="cls-5" d="M129.77741,247.7461v32.24h-33.54c-.6001-.47-1.18995-.96-1.78-1.45-1.7-1.42-3.37012-2.88-4.99-4.38l-.01-.01c-.59009-.54-1.17017-1.09-1.74-1.63995-.13013-.12-.25-.24-.37012-.36005-.56006-.53-1.10986-1.06995-1.65991-1.62q-3.72-3.705-7.12012-7.67c-.51978-.6-1.03-1.21-1.5398-1.82-.07006-.09-.15014-.18-.23-.28-.65014-.78-1.28027-1.57-1.91015-2.37-.1001-.13-.21-.27-.31006-.4-.56983-.72-1.11987-1.44-1.65991-2.17-.63013-.84-1.25-1.69-1.86011-2.54-.65991-.92-1.29981-1.85-1.92993-2.79-.31006-.45-.61011-.9-.91992-1.36-.3-.46-.6001-.92-.89014-1.38Z"/><path class="cls-10" d="M142.0572,333.81611l.3501.67c-.12012-.04-.23-.07-.3501-.1Z"/><path class="cls-10" d="M163.46736,275.96607v32.76l-.93018-.12c-.86987-.12-1.73975-.25-2.59985-.38a137.415,137.415,0,0,1-17.11011-3.83c-.17993-.05-.35986-.11-.54-.16-.07983-.02-.1499-.05-.23-.07-.24-.07-.49-.15-.73-.23-1.15991-.34-2.31006-.72-3.46-1.1l-.08985-.03c-.75-.24-1.5-.5-2.24023-.77-.56982-.2-1.12988-.41-1.7-.63-.2-.07-.3999-.15-.60986-.22-3.77-1.43-7.47-3.01-11.07007-4.75-.05005-.03-.10987-.05-.15991-.08-.29-.14-.58008-.29-.87012-.43-1.04-.51-2.06006-1.04-3.07984-1.57a133.66991,133.66991,0,0,1-21.81005-14.37c-.67017-.53-1.34009-1.08-2-1.63a23.73086,23.73086,0,0,1-.11011-2.39c0-.49.01-.99.03-1.48a28.18184,28.18184,0,0,1,7.10986-17.28,29.05785,29.05785,0,0,1,2.68018-2.63995,28.05286,28.05286,0,0,1,18.40991-6.82h12.88013A28.22282,28.22282,0,0,1,163.46736,275.96607Z"/><path class="cls-5" d="M87.48738,272.28608a134.56791,134.56791,0,0,1-16.43018-19.01q-1.455-2.055-2.84985-4.15c.2.05.38989.12.59008.19A28.232,28.232,0,0,1,87.48738,272.28608Z"/><path class="cls-9" d="M129.76468,274.48928c0,.10973,0,.21946.011.32919a12.68278,12.68278,0,0,0,8.08917,11.50256,10.5345,10.5345,0,0,0,1.61338.49385,11.779,11.779,0,0,0,2.57938.35117c.12058.011.25242.011.384.011s.26341,0,.38426-.011a12.684,12.684,0,1,0-13.05017-12.9951A2.978,2.978,0,0,0,129.76468,274.48928Zm.76851,0a11.92063,11.92063,0,0,1,6.46452-10.58065,11.6738,11.6738,0,0,1,5.44386-1.328,11.914,11.914,0,1,1,0,23.828,12.17607,12.17607,0,0,1-3.05125-.395,12.55655,12.55655,0,0,1-1.52549-.52681A11.917,11.917,0,0,1,130.53319,274.48928Z"/><path class="cls-9" d="M142.0572,333.81611l.3501.67c-.12012-.04-.23-.07-.3501-.1Z"/><path class="cls-9" d="M142.82722,286.79609v17.6c-.17993-.05-.35986-.11-.54-.16-.07983-.02-.1499-.05-.23-.07v-17.37Z"/><path class="cls-11" d="M253.89,237.411h55.44813a0,0,0,0,1,0,0v2.64386a7.68723,7.68723,0,0,1-7.68723,7.68723H261.57727A7.68723,7.68723,0,0,1,253.89,240.0549V237.411A0,0,0,0,1,253.89,237.411Z"/><polygon class="cls-12" points="223.304 274.813 212.679 203.977 182.927 203.34 179.773 275.589 223.304 274.813"/><path class="cls-12" d="M284.911,218.63981,281.9916,216.205a15.207,15.207,0,0,1-1.70925-2.2347c-26.50368,12.32679-59.07452,7.94749-86.185-12.45948l-5.406,7.18406c18.15178,13.66158,38.59713,20.76868,58.46859,21.14974a82.96736,82.96736,0,0,0,40.85506-9.712A15.049,15.049,0,0,1,284.911,218.63981Z"/><path class="cls-12" d="M185.976,202.65721c-28.17967,24.83471-64.5524,30.62325-93.58425,15.20146.28168,3.42421.49987,6.85433.68446,10.29509a81.88255,81.88255,0,0,0,28.52182,7.07787c24.13236,1.509,49.343-7.34206,70.32235-25.83Z"/><polygon class="cls-13" points="178.544 207.888 129.839 189.381 116.623 130.907 112.724 112.282 92.109 78.001 102.389 68.929 134.99 73.883 171.146 88.442 213.669 51.748 235.205 33.197 238.049 81.165 259.6 118.182 254.876 156.797 222.1 198.254 178.544 207.888"/><path class="cls-14" d="M288.67483,136.01962s-4.82709-17.59178-25.04525-26.4888c0,0,7.67943-1.35014,10.14809-.14646A41.3976,41.3976,0,0,0,251.8608,98.7742l-7.49322-23.01312,10.40731,1.42462s-1.24686-3.74027-11.6695-7.36106c4.60617-14.01594-2.89686-37.11736-2.89686-37.11736-31.95425,2.13772-40.50348,20.36753-42.38637,25.96993a146.49707,146.49707,0,0,0-27.8942,8.50986s5.7755-7.27772,13.05273-9.583a45.0462,45.0462,0,0,0-33.91247,17.39872S114.73986,59.161,86.91465,73.01543c0,0-.13275,15.21832,25.63183,48.27574,0,0-17.98014,17.03642-20.14758,33.99977,0,0,8.64335-16.43316,14.7628-20.804,0,0-21.60047,33.41351-6.50408,53.591,0,0-2.212-13.85912,1.3036-18.58037,0,0,.27987,13.18595,5.164,23.94483q-.3587-.15963-.723-.31247a12.87084,12.87084,0,0,1,1.895,1.92468c.04946.06185.0838.12136.13154.183a34.45907,34.45907,0,0,1,5.71812,1.106c-1.43336-4.00946-2.49539-8.40517-1.66241-11.24076a121.44012,121.44012,0,0,0,6.14668,12.9263c.73676.33219,1.47918.64423,2.19987,1.034,4.42594,2.39307,8.60941,4.9566,12.74527,7.7278q3.41214.37155,6.82218.76089c10.9316,2.92336,18.13542,5.57573,30.0865,6.74861,10.92994,1.07256,21.69223,2.41023,32.535,4.09444,5.21912.8104,8.9179-.77223,14.64888-1.69482,7.81617-1.2582,12.33878-4.90284.16672,1.84443a47.41541,47.41541,0,0,1,10.10618-4.16522c-.045-.024-.13151-.07087-.13151-.07087l-.00448-.00429c.68193-.3005,1.36963-.60761,2.06592-.93133a26.34346,26.34346,0,0,0,5.13692-3.19257c4.30789-3.28346,10.48393-9.45111,15.13171-20.06582,0,0-1.00422,11.62929-2.54356,13.583,0,0,13.55258-11.66421,15.26442-24.89734,0,0-.37544,11.73994-1.14143,14.11789,0,0,14.42489-16.13939,16.83657-35.6504,0,0,.86126,6.73866.26024,8.11157,0,0,16.52135-10.66826,1.92025-33.31718A11.29262,11.29262,0,0,1,288.67483,136.01962ZM117.793,106.66107C106.2981,99.30125,98.63944,79.64442,98.63944,79.64442c14.03485-7.19255,36.46528,4.36164,36.46528,4.36164C124.85171,92.53458,117.793,106.66107,117.793,106.66107Zm86.63723,45.31487c-13.31131,3.45861-27.94831-3.71671-32.12939-19.80943-4.18034-16.09368.5626-42.17309,13.87353-45.63112,13.31075-3.45783,30.149,17.01477,34.33065,33.10728C224.68479,135.73541,217.74,148.51775,204.43025,151.97594ZM233.147,73.44151s-17.63686-10.6982-24.2124-12.30208c-2.83681-.692,6.25895-15.38613,23.981-18.68617C232.91553,42.45326,240.14411,64.03621,233.147,73.44151Z"/><path class="cls-15" d="M177.535,223.04057s26.46682,9.9991,46.54721-6.19322Z"/><path class="cls-14" d="M101.25386,170.10153s2.67306,34.56627,20.82843,48.01039c0,0-6.67749-13.88253-7.54435-20.4881,0,0,9.31337,26.5675,49.96394,30.3007a48.02391,48.02391,0,0,1-19.68508-13.2629s53.54481,22.66456,89.35188-3.84411L159.34431,197.51s-35.66068-29.18766-36.46107-29.21854C122.08323,168.26077,101.25386,170.10153,101.25386,170.10153Z"/><path class="cls-13" d="M228.69642,140.68112C218.32259,146.31668,244.144,151.164,244.144,151.164s4.84113-8.26362,5.67261-15.20394C250.64665,129.01675,239.06832,135.04408,228.69642,140.68112Z"/><path class="cls-14" d="M96.24388,226.25516c-1.55686,2.84777-4.34243,7.75945-8.09616,7.755-7.24066.01039.44384-9.38976,2.53375-12.19847a86.61131,86.61131,0,0,1-10.57469,8.156,25.84853,25.84853,0,0,1-6.40331,3.22045c-1.67089.47947-5.7717,1.19413-6.4377-1.20382-.6612-2.38067,3.31123-5.16191,4.939-6.30752a23.77975,23.77975,0,0,1,16.34331-4.0206c-4.19288-.57175-8.37548-1.2427-12.50861-2.15707a61.36475,61.36475,0,0,1-7.765-2.15964c-1.94956-.71021-4.892-1.65573-5.87885-3.71051-2.7834-5.79919,10.82643-3.20614,12.95765-2.80662,8.35359,1.566,14.14174,4.68271,21.37783,9.00758l.51305.30664c2.15083-3.612,8.66457-15.251,14.12257-12.9687,6.99715,3.20222-8.13134,15.29-12.72558,15.76256Z"/><path class="cls-14" d="M283.31156,220.33289c.97818,3.09464,2.7638,8.45146,6.44787,9.17128,7.10262,1.40715,1.37608-9.299-.13269-12.45812a86.61328,86.61328,0,0,0,8.80248,10.04294,25.84834,25.84834,0,0,0,5.66168,4.39534c1.547.79284,5.43288,2.28524,6.549.06083,1.10808-2.20837-2.25313-5.70377-3.62929-7.1419a23.77982,23.77982,0,0,0-15.26057-7.0982c4.22442.24793,8.45788.39654,12.68978.29676a61.36449,61.36449,0,0,0,8.03582-.62094c2.05-.32074,5.11955-.68081,6.48428-2.50659,3.84994-5.15324-10.00447-5.23466-12.17273-5.25382-8.49877-.07511-14.77949,1.86634-22.714,4.7139l-.56256.20189c-1.41355-3.95912-5.55939-16.63614-11.35518-15.44973-7.48349,1.79209,5.02865,16.57156,9.44541,17.92157Z"/><path class="cls-13" d="M157.33864,152.2419c-19.12317-20.56511-21.84046,10.34382-21.84046,10.34382h0C143.60583,138.25244,157.33864,152.2419,157.33864,152.2419Z"/><path class="cls-13" d="M185.50813,190.51457c13.49459,2.51939,29.18906-.49235,46.823-9.009a1.0272,1.0272,0,1,0-.89354-1.8499c-21.65724,10.45961-40.22616,12.44-55.18961,5.88521-19.11149-8.37136-26.48583-28.391-28.2906-34.32717a1.02723,1.02723,0,1,0-1.96567.59744,66.3473,66.3473,0,0,0,9.38967,19.005,48.92079,48.92079,0,0,0,20.04228,16.60646A46.1797,46.1797,0,0,0,185.50813,190.51457Z"/><path class="cls-16" d="M246.63728,292.8061c-.35987.21-.74.41-1.1001.61-1.2.66-2.3999,1.29-3.61987,1.91-.06006.03-.11011.05-.15992.08-.10009.05-.19018.1-.29.14-1.05005-.76-2.1001-1.48-3.14014-2.17a99.77768,99.77768,0,0,0-12.87988-7.23,87.56943,87.56943,0,0,0-15.16993-5.53c-1.43017-.38-2.52-.6-3.19018-.73-.46-.08-.71-.12-.76-.13l.14014-.95.5-3.7.08984-.61c.09009.02,1.06006.17,2.73.55a88.20012,88.20012,0,0,1,11.91016,3.76c.63989.25,1.28.51,1.95.8.23.09.46.18.68994.28.54.23,1.1001.48,1.66016.73a105.97722,105.97722,0,0,1,20.63989,12.19Z"/><path class="cls-16" d="M229.13728,300.9961c-.3.11-.60987.23-.90991.34-.65015.24005-1.29.48005-1.94019.71-.27.1-.52979.19-.7998.28-.6001.21-1.2002.42-1.81006.62a103.88258,103.88258,0,0,0-26.52-20.66c-1.12012-.61-2.2-1.17-3.22-1.67-.51-.25-1.01-.5-1.49-.73-.83008-.39-1.64014-.75-2.38013-1.08-1.07983-.49-2.07983-.89-2.97-1.24l.84009-2.12.11987-.32.49023-1.24.48975-1.24.01025-.03c.01978.01.02979.02.04981.03h.02c.83008.32,1.72.69,2.68017,1.12h.00977c.79.34,1.62012.71,2.49023,1.13h.02979c.28.13.58008.27.87012.42005.62988.3,1.29.62,1.96.97,1.47.74,3.03,1.58,4.6499,2.52.6001.34,1.22021.7,1.8501,1.08.39013.23.8.48,1.18994.73a109.46889,109.46889,0,0,1,20.41992,16.26l.55.55Q227.48238,299.13612,229.13728,300.9961Z"/><polygon class="cls-17" points="176.652 274.335 176.652 280.614 319.27 280.614 320.302 278.825 320.313 278.803 336.205 251.155 366.707 198.11 367.365 196.968 326.36 191.393 272.009 184.006 246.534 239.532 242.77 247.742 231.575 272.129 231.52 272.25 222.97 272.58 222.959 272.58 221.74 272.623 197.155 273.556 191.81 273.765 191.799 273.765 188.55 273.886 179.825 274.215 176.652 274.335"/><polygon class="cls-13" points="176.704 275.56 176.609 273.116 230.724 271.054 271.277 182.669 367.53 195.756 367.2 198.179 272.744 185.337 232.32 273.441 176.704 275.56"/><polygon class="cls-18" points="176.652 278.803 176.652 280.614 319.149 280.614 320.302 278.825 320.313 278.803 176.652 278.803"/><ellipse class="cls-13" cx="300.31035" cy="237.43911" rx="12.39466" ry="6.60411" transform="translate(-33.62191 424.66326) rotate(-67.60934)"/><ellipse class="cls-14" cx="190.11664" cy="138.58121" rx="5.31264" ry="8.61816" transform="translate(-38.29261 82.20475) rotate(-22.22458)"/><ellipse class="cls-13" cx="229.88018" cy="121.80944" rx="5.31264" ry="8.61816" transform="translate(-28.99479 95.99883) rotate(-22.22458)"/><path class="cls-14" d="M93.61946,305.37136c-1.55059-1.99254-2.90894-3.8914-3.87989-5.316,1.50656-2.31072,6.03213-8.66911,10.68976-2.11775C104.89179,304.10839,96.86884,305.14684,93.61946,305.37136Z"/><path class="cls-19" d="M90.31728,304.29646a5.79595,5.79595,0,1,1,5.11365,6.40548A5.802,5.802,0,0,1,90.31728,304.29646Zm1.11548.125a4.67348,4.67348,0,1,0,5.16442-4.12327A4.67817,4.67817,0,0,0,91.43276,304.4215Z"/><path class="cls-14" d="M20.25808,295.31479a.09367.09367,0,0,1,.09466-.09661c1.89983-1.26272,10.66138-4.891,10.66138-4.891a28.65728,28.65728,0,0,0-4.48373,1.09788c4.55295-3.68081,13.33505-5.30085,13.33505-5.30085-.96019-.37273-6.12018.06261-6.12018.06261,6.93387-4.66155,18.63078-1.81644,18.63078-1.81644-1.25588-1.23044-6.15344-3.18873-6.15344-3.18873,7.64631-.46077,14.09738,3.77693,14.09738,3.77693a21.78844,21.78844,0,0,0-3.953-3.11561,38.84226,38.84226,0,0,1,11.535,5.7159,43.07394,43.07394,0,0,1,19.61958,10.702s13.41771,21.47687,22.77553,20.0422c0,0-17.0479,6.96469-30.17164-4.47323,2.22194,2.17694,7.25523,8.055,5.22871,15.6311,0,0-25.5326-37.13316-66.52264-33.36651A6.21692,6.21692,0,0,0,20.25808,295.31479Z"/><path class="cls-14" d="M92.40589,317.62541a15.14848,15.14848,0,0,1-1.69562,11.87642s-2.40366-10.59121-11.05222-14.61514l.92693-2.87862Z"/><path class="cls-14" d="M92.28067,305.38505l-1.45594-2.08913a13.97987,13.97987,0,0,0,1.55059,1.99254Z"/><path class="cls-14" d="M111.74617,319.72285a1.98684,1.98684,0,0,0-.69874-2.862,2.33776,2.33776,0,0,0-3.1518.41479,1.98682,1.98682,0,0,0,.69874,2.862A2.45869,2.45869,0,0,0,111.74617,319.72285Z"/><path class="cls-14" d="M36.24649,296.96835c4.876-.14552,12.44726,1.40286,23.88761,7.21537l9.62441,5.92672s-2.49317-.64395-6.42369-1.56012a71.97921,71.97921,0,0,0-12.31274-6.95123A60.4828,60.4828,0,0,0,36.24649,296.96835Z"/><path class="cls-14" d="M50.83865,302.36606a71.72565,71.72565,0,0,1,10.09765,5.44369l-.28689.00294c-1.24218.10835-6.40118.63931-10.62054-.46519a29.58288,29.58288,0,0,0,3.91486-.61388s-8.61334-.58135-12.64242-1.78342a27.06538,27.06538,0,0,0,3.91682-.42262l.28689-.00293-.28689.00293c-.19126.002-11.29483-.93647-15.99723-2.5142h0l-.28688.00293a5.66142,5.66142,0,0,1,2.31757,2.176c-1.62274.30352-2.21021-1.02941-2.89134-2.17009l-.09564.001a18.11792,18.11792,0,0,1,.8812,1.99938c.10639,1.05094-.05943,3.5392-1.8003,1.64426-.57964-.5679-.12107-2.48535.24971-3.63679l-.09563.001s.924-3.1655,5.50337-4.26437A52.85837,52.85837,0,0,1,50.83865,302.36606Z"/><path class="cls-14" d="M19.30767,295.89834c.967,1.04212,1.36911,2.95076,3.27775,2.54868a8.14071,8.14071,0,0,0-3.27775-2.54868Z"/><path class="cls-14" d="M20.1918,298.1846a4.09854,4.09854,0,0,0-.97976-2.28528c-.09563.001-.28591.09856-.38153.09953-.37174,1.05582-.924,3.1655-.24775,3.82805C20.03674,301.72479,20.39479,299.33017,20.1918,298.1846Z"/><polygon class="cls-13" points="84.265 297.816 88.718 293.658 88.537 285.339 83.053 282.144 78.937 281.803 74.743 283.185 71.913 287.04 69.658 290.888 72.553 293.441 84.265 297.816"/><path class="cls-14" d="M90.84308,295.74035c2.81307-5.48012-.02861-12.14569-6.17814-14.95192-6.14756-2.615-13.2991-.53341-16.11217,4.94672a4.58012,4.58012,0,0,0-.84011,2.017c-1.28792,4.98634,1.44543,10.40973,6.92164,12.84029a14.09519,14.09519,0,0,0,6.5154,1.17664,2.64764,2.64764,0,0,1,.85968-.10444,6.23272,6.23272,0,0,0,1.5271-.30254c.66646-.29373,1.33488-.3962,1.90571-.68895a22.94165,22.94165,0,0,0,2.56629-1.55646A11.65316,11.65316,0,0,0,90.84308,295.74035Zm-5.34982-.18495-.13569-.19214c-1.452-1.70662-4.4901-2.48562-6.79788-3.7053h0a63.38569,63.38569,0,0,0-6.72134-2.6091.96355.96355,0,0,0,.0927-.28787c.36783-1.43833,3.254-9.11887,11.61668-4.99636,8.74713,4.30985,2.85782,11.20536,2.19528,11.88159h0C85.64738,295.6472,85.59084,295.74568,85.49326,295.5554Z"/><path class="cls-13" d="M86.92063,304.9617a3.528,3.528,0,0,1-4.5735,1.67263,3.40354,3.40354,0,0,1-1.576-4.47885,3.528,3.528,0,0,1,4.57351-1.67263A3.29661,3.29661,0,0,1,86.92063,304.9617Z"/><ellipse class="cls-14" cx="85.37365" cy="304.88974" rx="1.2432" ry="0.95631" transform="translate(-190.51466 149.54478) rotate(-44.97433)"/><path class="cls-14" d="M86.61491,331.16957a6.90194,6.90194,0,0,0-1.36227-2.28136.57494.57494,0,0,1-.38153.09955c-.08291,1.24414-.05943,3.5392.42458,4.10808C87.22781,334.98881,87.10381,332.21658,86.61491,331.16957Z"/><path class="cls-14" d="M40.76521,289.94056a1.58192,1.58192,0,0,0,1.81693-.01859,8.30066,8.30066,0,0,0,2.91163-5.19422,11.41664,11.41664,0,0,0-3.06717-10.01059c-3.47977-3.59863-7.2073-3.36922-10.647-3.04712-2.48534.12106-4.87409.33677-6.99061-.88487a3.64944,3.64944,0,0,1-1.39161-5.1502,5.05779,5.05779,0,0,1,6.4753-2.7441,1.545,1.545,0,0,0,1.11818-2.88057c-4.51309-1.77095-8.59769.94869-10.28476,4.31327a6.54406,6.54406,0,0,0,2.57927,9.0592c2.88839,1.88321,6.04118,1.564,8.71777,1.441,3.15278-.31917,5.82938-.44219,8.15086,2.11629a8.97126,8.97126,0,0,1,2.27574,7.43646,5.97061,5.97061,0,0,1-1.78171,3.46119,1.5502,1.5502,0,0,0-.26438,2.20237C40.47735,289.84787,40.66958,289.94154,40.76521,289.94056Z"/><path class="cls-14" d="M84.96576,328.89113c1.25294.94356,2.22683,2.65508,3.6544,1.971a6.16847,6.16847,0,0,0-3.6544-1.971Z"/><path class="cls-14" d="M92.35551,331.39775a6.90211,6.90211,0,0,0-1.36227-2.28136.575.575,0,0,1-.38154.09954c-.08291,1.24414-.05943,3.5392.42458,4.10808C92.96645,335.02574,92.84441,332.44477,92.35551,331.39775Z"/><path class="cls-14" d="M90.89565,328.92611c1.25295.94356,2.22683,2.65508,3.6544,1.971a7.50406,7.50406,0,0,0-3.6544-1.971Z"/><path class="cls-19" d="M71.88618,301.17309a9.01647,9.01647,0,1,1,7.95541,9.96419A9.02664,9.02664,0,0,1,71.88618,301.17309Zm1.11548.125a7.894,7.894,0,1,0,8.72372-6.96552A7.90225,7.90225,0,0,0,73.00166,301.29814Z"/><path class="cls-19" d="M90.90019,303.13082l.841-.74237a1.9798,1.9798,0,0,0-2.77892-.29166l.70511.87322A.86229.86229,0,0,1,90.90019,303.13082Z"/><ellipse class="cls-20" cx="318.99804" cy="57.94738" rx="13.4918" ry="12.27282"/><rect class="cls-20" x="302.18866" y="81.95449" width="33.61875" height="8.10098"/><rect class="cls-4" x="314.8364" y="94.36979" width="8.32329" height="12.73715"/><rect class="cls-20" x="310.29642" y="88.56871" width="17.40324" height="8.32329"/><circle class="cls-4" cx="348.92936" cy="125.33175" r="7.41971"/><path class="cls-21" d="M95.15264,189.2981c-1.2832-2.15817-3.80333-3.88755-5.53656-5.68552-3.23429-3.35446-4.65544-7.643-5.35186-12.1782-.04532-.29779-.42025-3.448-.485-5.41271a3.05488,3.05488,0,0,0,2.2662-3.22553,3.1783,3.1783,0,0,0-3.839-2.24226l-11.50879,1.95241a3.17764,3.17764,0,0,0-2.88458,3.383,3.02656,3.02656,0,0,0,3.071,2.29552q.14059.4007.27228.80377A30.91158,30.91158,0,0,1,72.877,180.30816a20.31544,20.31544,0,0,1-1.62493,6.62269c-.91033,2.161-2.69815,4.31869-3.33255,6.54091-1.17527,4.119-1.16248,9.28876-.82092,13.53416a189.47131,189.47131,0,0,0,5.68681,32.25846s5.6875,4.53207,15.24993,2.90977l.00967.0026c9.56326-1.62258,13.68174-6.7223,13.68174-6.7223.02674-1.28567-.022-2.573-.04124-3.85806-.10083-6.49565-.48678-12.91306-1.1246-19.37821C99.81664,204.67723,99.12834,195.98546,95.15264,189.2981Z"/><path class="cls-13" d="M83.99323,242.73407a19.42754,19.42754,0,0,1-11.34082-3.30322l-.05566-.04394-.01758-.06885a189.91784,189.91784,0,0,1-5.69336-32.29492c-.30664-3.81006-.41113-9.26368.8291-13.60987a17.12253,17.12253,0,0,1,1.875-3.835,23.37964,23.37964,0,0,0,1.46582-2.73,19.9379,19.9379,0,0,0,1.6084-6.55322,30.61094,30.61094,0,0,0-1.71093-11.24072q-.1084-.33252-.22266-.6626a3.22423,3.22423,0,0,1-3.12793-2.4668,3.38392,3.38392,0,0,1,3.05859-3.6289L82.171,160.34394a3.95974,3.95974,0,0,1,2.65723.44922,2.82651,2.82651,0,0,1,1.42675,1.96728,3.22443,3.22443,0,0,1-2.25683,3.40918c.07715,1.94678.43066,4.92871.47656,5.23291.81934,5.33252,2.50195,9.16553,5.29492,12.062.57422.59522,1.22559,1.17432,1.915,1.7876a18.12273,18.12273,0,0,1,3.65137,3.937h0c3.8164,6.42041,4.623,14.67578,5.334,21.95947l.10254,1.04834c.65918,6.68213,1.02735,13.02637,1.126,19.396.00586.35645.01367.71289.02051,1.06934.0205.916.041,1.86328.0205,2.79638l-.001.07276-.0459.05664c-.042.05176-4.2793,5.18164-13.81152,6.79883l-.04981.0083-.00977-.00293A24.321,24.321,0,0,1,83.99323,242.73407Zm-11.0205-3.59472c.60547.44824,6.167,4.32812,15.02636,2.8247l.04981-.0083.00976.00293c8.80372-1.5083,12.98047-6.03808,13.45606-6.58447.01758-.8999-.00195-1.81592-.02149-2.70264-.00781-.35742-.01562-.71484-.0205-1.07177-.09864-6.35791-.4668-12.69092-1.124-19.36084l-.10254-1.04883c-.707-7.23926-1.50878-15.44434-5.27734-21.7832a17.82325,17.82325,0,0,0-3.56738-3.83643c-.69629-.61865-1.35352-1.20313-1.93848-1.81006-2.85644-2.96289-4.57617-6.86914-5.41016-12.29394-.04687-.31543-.42187-3.481-.48632-5.438l-.00489-.15772L83.711,165.82a2.836,2.836,0,0,0,2.124-2.98828,2.41321,2.41321,0,0,0-1.22168-1.6709,3.53527,3.53527,0,0,0-2.37109-.397L70.73249,162.716a2.96432,2.96432,0,0,0-2.71,3.13769,2.83,2.83,0,0,0,2.86621,2.11817l.14746.00341.04883.13868c.09375.26855.18555.53759.27344.8081a31.02408,31.02408,0,0,1,1.73144,11.39942,20.35849,20.35849,0,0,1-1.6416,6.69189,23.5831,23.5831,0,0,1-1.49121,2.78223,16.79884,16.79884,0,0,0-1.832,3.73486c-1.22363,4.28467-1.11816,9.68359-.81348,13.4585A189.34826,189.34826,0,0,0,72.97273,239.13935Z"/><path class="cls-13" d="M69.48318,208.60275s2.89321,24.13189,5.22529,29.23529c0,0,13.13338,5.56178,25.0945-3.891l-1.74788-29.15331Z"/><path class="cls-22" d="M98.05509,204.79376c.16557,1.23672-6.09728,3.09152-13.98745,4.143-7.89,1.05257-14.42017.90192-14.58446-.334-.16469-1.23761,6.09715-3.09237,13.98717-4.1448C91.3605,203.40637,97.89067,203.557,98.05509,204.79376Z"/><path class="cls-13" d="M66.51395,186.71219c.92911,1.06646,1.7289,5.88321,1.7289,5.88321s-4.66176-1.45215-5.59087-2.5186a2.561,2.561,0,1,1,3.862-3.36461Z"/><path class="cls-13" d="M78.27072,183.89424c-.71687,2.21321-6.83121,7.42014-6.83121,7.42014s-1.90041-7.80293-1.18355-10.01614a4.21235,4.21235,0,1,1,8.01476,2.596Z"/><circle class="cls-4" cx="348.92936" cy="113.90855" r="2.74117"/><circle class="cls-4" cx="348.92936" cy="107.16389" r="2.74117"/><circle class="cls-4" cx="348.92936" cy="100.41923" r="2.74117"/><circle class="cls-4" cx="348.92936" cy="93.67457" r="2.74117"/><circle class="cls-4" cx="352.6042" cy="88.14903" r="1.90644"/><circle class="cls-4" cx="352.6042" cy="83.45822" r="1.90644"/><path class="cls-4" d="M269.33944,90.05547c.68692-20.03854,21.94-36.12281,48.07623-36.12281s47.389,16.08427,48.07624,36.12281Z"/><rect class="cls-4" x="303.70573" y="147.01483" width="8.35605" height="5.61365" transform="translate(615.76751 299.6433) rotate(180)"/><rect class="cls-4" x="300.8989" y="142.00264" width="5.23535" height="14.97041" rx="1.49248" transform="translate(607.03316 298.9757) rotate(180)"/></g></g></svg>